# xmcd
#
# Track frame offsets:
#	150
#	29973
#	50633
#	72114
#	103191
#	124069
#	145780
#	172824
#	198412
#	224156
#	251842
#	274712
#
# Disc length: 4034 seconds
#
# Revision: 4
# Processed by: cddbd v1.5.2PL0 Copyright (c) Steve Scherf et al.
# Submitted via: EZCDAudioConverter 8.0.2.1
#
DISCID=c20fc00c
DTITLE=Various Artist - st. Việt Anh. Tình Yêu Tôi Hát
DYEAR=2000
DGENRE=Vietnamese
TTITLE0=Hồng Nhung, Lam Trường - Tình Yêu Tôi Hát
TTITLE1=Thu Phương - Dòng sông lơ đãng (new version)
TTITLE2=Bằng Kiều - Người đi xa mãi (new version)
TTITLE3=Thanh Lam - Giao mùa
TTITLE4=Trần Thu Hà -  Khoảng vắng em chờ
TTITLE5=Phương Thanh - Màu của lãng quên (new version)
TTITLE6=Thu Phương - Mùa hoa bỏ lại
TTITLE7=Lam Trường - Mưa phi trường (new version)
TTITLE8=Hồng Nhung - Ngày hôm qua là thế
TTITLE9=Bằng Kiều - Nơi mùa thu bắt đầu (new version)
TTITLE10=Thu Phương, Huy MC - Mưa phi trường
TTITLE11=Soundtrack - Tình yêu tôi hát
EXTD=
EXTT0=
EXTT1=
EXTT2=
EXTT3=
EXTT4=
EXTT5=
EXTT6=
EXTT7=
EXTT8=
EXTT9=
EXTT10=
EXTT11=
PLAYORDER=
